<svg xmlns="http://www.w3.org/2000/svg" version="1.1" xmlns:xlink="http://www.w3.org/1999/xlink" xmlns:svgjs="http://svgjs.com/svgjs" width="1440" height="560" preserveAspectRatio="none" viewBox="0 0 1440 560"><g mask="url(&quot;#SvgjsMask1000&quot;)" fill="none"><rect width="1440" height="560" x="0" y="0" fill="#0e2a47"></rect><path d="M 0,128 C 57.6,141.2 172.8,213.4 288,194 C 403.2,174.6 460.8,20 576,31 C 691.2,42 748.8,236.4 864,249 C 979.2,261.6 1036.8,99.4 1152,94 C 1267.2,88.6 1382.4,196.4 1440,222L1440 560L0 560z" fill="#184a7e"></path><path d="M 0,519 C 96,490.2 288,377.6 480,375 C 672,372.4 768,507.4 960,506 C 1152,504.6 1344,395.6 1440,368L1440 560L0 560z" fill="#2264ab"></path></g><defs><mask id="SvgjsMask1000"><rect width="1440" height="560" fill="#ffffff"></rect></mask></defs></svg>